<mxfile host="app.diagrams.net" agent="Mozilla/5.0 (Windows NT 10.0; Win64; x64; rv:130.0) Gecko/20100101 Firefox/130.0" version="24.7.16">
  <diagram name="Page-1" id="l_hzTHOlncp9mFvoPq7a">
    <mxGraphModel dx="2206" dy="1191" grid="1" gridSize="10" guides="1" tooltips="1" connect="1" arrows="1" fold="1" page="1" pageScale="1" pageWidth="850" pageHeight="1100" math="0" shadow="0">
      <root>
        <mxCell id="0" />
        <mxCell id="1" parent="0" />
        <mxCell id="UNILriuvcRTVtCKPwh0u-1" style="edgeStyle=orthogonalEdgeStyle;rounded=0;orthogonalLoop=1;jettySize=auto;html=1;entryX=0;entryY=0.5;entryDx=0;entryDy=0;" edge="1" parent="1" source="UNILriuvcRTVtCKPwh0u-5" target="UNILriuvcRTVtCKPwh0u-20">
          <mxGeometry relative="1" as="geometry">
            <Array as="points">
              <mxPoint x="380" y="300" />
              <mxPoint x="380" y="410" />
            </Array>
          </mxGeometry>
        </mxCell>
        <mxCell id="UNILriuvcRTVtCKPwh0u-2" style="edgeStyle=orthogonalEdgeStyle;rounded=0;orthogonalLoop=1;jettySize=auto;html=1;entryX=1;entryY=0.5;entryDx=0;entryDy=0;" edge="1" parent="1" source="UNILriuvcRTVtCKPwh0u-5" target="UNILriuvcRTVtCKPwh0u-20">
          <mxGeometry relative="1" as="geometry">
            <mxPoint x="610" y="430" as="targetPoint" />
            <Array as="points">
              <mxPoint x="600" y="300" />
              <mxPoint x="600" y="301" />
              <mxPoint x="610" y="301" />
              <mxPoint x="610" y="410" />
            </Array>
          </mxGeometry>
        </mxCell>
        <mxCell id="UNILriuvcRTVtCKPwh0u-3" style="edgeStyle=orthogonalEdgeStyle;rounded=0;orthogonalLoop=1;jettySize=auto;html=1;entryX=0;entryY=0.5;entryDx=0;entryDy=0;" edge="1" parent="1" source="UNILriuvcRTVtCKPwh0u-5" target="UNILriuvcRTVtCKPwh0u-36">
          <mxGeometry relative="1" as="geometry">
            <Array as="points">
              <mxPoint x="860" y="290" />
              <mxPoint x="860" y="410" />
            </Array>
          </mxGeometry>
        </mxCell>
        <mxCell id="UNILriuvcRTVtCKPwh0u-4" style="edgeStyle=orthogonalEdgeStyle;rounded=0;orthogonalLoop=1;jettySize=auto;html=1;entryX=0.5;entryY=0;entryDx=0;entryDy=0;" edge="1" parent="1" source="UNILriuvcRTVtCKPwh0u-5" target="UNILriuvcRTVtCKPwh0u-51">
          <mxGeometry relative="1" as="geometry" />
        </mxCell>
        <mxCell id="UNILriuvcRTVtCKPwh0u-5" value="Employee" style="rounded=0;whiteSpace=wrap;html=1;fillColor=#0050ef;strokeColor=#001DBC;fontColor=#ffffff;" vertex="1" parent="1">
          <mxGeometry x="424" y="260" width="120" height="60" as="geometry" />
        </mxCell>
        <mxCell id="UNILriuvcRTVtCKPwh0u-70" style="edgeStyle=orthogonalEdgeStyle;rounded=0;orthogonalLoop=1;jettySize=auto;html=1;exitX=0.5;exitY=1;exitDx=0;exitDy=0;entryX=0.5;entryY=0;entryDx=0;entryDy=0;" edge="1" parent="1" source="UNILriuvcRTVtCKPwh0u-7" target="UNILriuvcRTVtCKPwh0u-5">
          <mxGeometry relative="1" as="geometry" />
        </mxCell>
        <mxCell id="UNILriuvcRTVtCKPwh0u-7" value="&lt;u&gt;ID&lt;/u&gt;" style="ellipse;whiteSpace=wrap;html=1;fillColor=#d80073;fontColor=#ffffff;strokeColor=#A50040;" vertex="1" parent="1">
          <mxGeometry x="429" y="92.5" width="110" height="40" as="geometry" />
        </mxCell>
        <mxCell id="UNILriuvcRTVtCKPwh0u-66" style="edgeStyle=orthogonalEdgeStyle;rounded=0;orthogonalLoop=1;jettySize=auto;html=1;exitX=0.5;exitY=1;exitDx=0;exitDy=0;entryX=1;entryY=0;entryDx=0;entryDy=0;" edge="1" parent="1" source="UNILriuvcRTVtCKPwh0u-9" target="UNILriuvcRTVtCKPwh0u-5">
          <mxGeometry relative="1" as="geometry" />
        </mxCell>
        <mxCell id="UNILriuvcRTVtCKPwh0u-9" value="Name" style="ellipse;whiteSpace=wrap;html=1;fillColor=#d80073;strokeColor=#A50040;fontColor=#ffffff;" vertex="1" parent="1">
          <mxGeometry x="539" y="92.5" width="110" height="40" as="geometry" />
        </mxCell>
        <mxCell id="UNILriuvcRTVtCKPwh0u-68" style="edgeStyle=orthogonalEdgeStyle;rounded=0;orthogonalLoop=1;jettySize=auto;html=1;exitX=0.5;exitY=1;exitDx=0;exitDy=0;entryX=0;entryY=0;entryDx=0;entryDy=0;" edge="1" parent="1" source="UNILriuvcRTVtCKPwh0u-11" target="UNILriuvcRTVtCKPwh0u-5">
          <mxGeometry relative="1" as="geometry" />
        </mxCell>
        <mxCell id="UNILriuvcRTVtCKPwh0u-11" value="Position" style="ellipse;whiteSpace=wrap;html=1;fillColor=#d80073;fontColor=#ffffff;strokeColor=#A50040;" vertex="1" parent="1">
          <mxGeometry x="329" y="92.5" width="100" height="45" as="geometry" />
        </mxCell>
        <mxCell id="UNILriuvcRTVtCKPwh0u-12" style="edgeStyle=orthogonalEdgeStyle;rounded=0;orthogonalLoop=1;jettySize=auto;html=1;entryX=0.5;entryY=1;entryDx=0;entryDy=0;" edge="1" parent="1" source="UNILriuvcRTVtCKPwh0u-14" target="UNILriuvcRTVtCKPwh0u-19">
          <mxGeometry relative="1" as="geometry" />
        </mxCell>
        <mxCell id="UNILriuvcRTVtCKPwh0u-13" style="edgeStyle=orthogonalEdgeStyle;rounded=0;orthogonalLoop=1;jettySize=auto;html=1;entryX=0.5;entryY=1;entryDx=0;entryDy=0;" edge="1" parent="1" source="UNILriuvcRTVtCKPwh0u-14" target="UNILriuvcRTVtCKPwh0u-20">
          <mxGeometry relative="1" as="geometry">
            <Array as="points">
              <mxPoint x="287" y="460" />
              <mxPoint x="287" y="470" />
              <mxPoint x="484" y="470" />
            </Array>
          </mxGeometry>
        </mxCell>
        <mxCell id="UNILriuvcRTVtCKPwh0u-14" value="Department" style="rounded=0;whiteSpace=wrap;html=1;fillColor=#0050ef;strokeColor=#001DBC;fontColor=#ffffff;" vertex="1" parent="1">
          <mxGeometry x="30" y="410" width="120" height="60" as="geometry" />
        </mxCell>
        <mxCell id="UNILriuvcRTVtCKPwh0u-15" value="" style="edgeStyle=orthogonalEdgeStyle;rounded=0;orthogonalLoop=1;jettySize=auto;html=1;" edge="1" parent="1" source="UNILriuvcRTVtCKPwh0u-16" target="UNILriuvcRTVtCKPwh0u-14">
          <mxGeometry relative="1" as="geometry" />
        </mxCell>
        <mxCell id="UNILriuvcRTVtCKPwh0u-16" value="&lt;u&gt;Name&lt;/u&gt;" style="ellipse;whiteSpace=wrap;html=1;fillColor=#d80073;fontColor=#ffffff;strokeColor=#A50040;" vertex="1" parent="1">
          <mxGeometry x="35" y="514" width="110" height="50" as="geometry" />
        </mxCell>
        <mxCell id="UNILriuvcRTVtCKPwh0u-17" style="edgeStyle=orthogonalEdgeStyle;rounded=0;orthogonalLoop=1;jettySize=auto;html=1;" edge="1" parent="1" source="UNILriuvcRTVtCKPwh0u-19" target="UNILriuvcRTVtCKPwh0u-14">
          <mxGeometry relative="1" as="geometry">
            <Array as="points">
              <mxPoint x="230" y="440" />
            </Array>
          </mxGeometry>
        </mxCell>
        <mxCell id="UNILriuvcRTVtCKPwh0u-18" style="edgeStyle=orthogonalEdgeStyle;rounded=0;orthogonalLoop=1;jettySize=auto;html=1;" edge="1" parent="1" source="UNILriuvcRTVtCKPwh0u-19" target="UNILriuvcRTVtCKPwh0u-5">
          <mxGeometry relative="1" as="geometry">
            <Array as="points">
              <mxPoint x="230" y="230" />
              <mxPoint x="380" y="230" />
              <mxPoint x="380" y="270" />
            </Array>
          </mxGeometry>
        </mxCell>
        <mxCell id="UNILriuvcRTVtCKPwh0u-19" value="Assigned" style="rhombus;whiteSpace=wrap;html=1;fillColor=#d5e8d4;strokeColor=#82b366;" vertex="1" parent="1">
          <mxGeometry x="160" y="260" width="140" height="80" as="geometry" />
        </mxCell>
        <mxCell id="UNILriuvcRTVtCKPwh0u-20" value="Manager" style="rhombus;whiteSpace=wrap;html=1;fillColor=#d5e8d4;strokeColor=#82b366;" vertex="1" parent="1">
          <mxGeometry x="424" y="370" width="120" height="80" as="geometry" />
        </mxCell>
        <mxCell id="UNILriuvcRTVtCKPwh0u-89" style="edgeStyle=orthogonalEdgeStyle;rounded=0;orthogonalLoop=1;jettySize=auto;html=1;exitX=1;exitY=0;exitDx=0;exitDy=0;entryX=0.5;entryY=1;entryDx=0;entryDy=0;" edge="1" parent="1" source="UNILriuvcRTVtCKPwh0u-21" target="UNILriuvcRTVtCKPwh0u-36">
          <mxGeometry relative="1" as="geometry" />
        </mxCell>
        <mxCell id="UNILriuvcRTVtCKPwh0u-21" value="Meeting Room" style="rounded=0;whiteSpace=wrap;html=1;fillColor=#0050ef;strokeColor=#001DBC;fontColor=#ffffff;" vertex="1" parent="1">
          <mxGeometry x="715" y="700" width="120" height="60" as="geometry" />
        </mxCell>
        <mxCell id="UNILriuvcRTVtCKPwh0u-81" style="edgeStyle=orthogonalEdgeStyle;rounded=0;orthogonalLoop=1;jettySize=auto;html=1;exitX=0.5;exitY=0;exitDx=0;exitDy=0;entryX=1;entryY=1;entryDx=0;entryDy=0;" edge="1" parent="1" source="UNILriuvcRTVtCKPwh0u-23" target="UNILriuvcRTVtCKPwh0u-21">
          <mxGeometry relative="1" as="geometry" />
        </mxCell>
        <mxCell id="UNILriuvcRTVtCKPwh0u-23" value="&lt;u&gt;Room Number&lt;/u&gt;" style="ellipse;whiteSpace=wrap;html=1;fillColor=#d80073;fontColor=#ffffff;strokeColor=#A50040;" vertex="1" parent="1">
          <mxGeometry x="825" y="920" width="110" height="50" as="geometry" />
        </mxCell>
        <mxCell id="UNILriuvcRTVtCKPwh0u-24" style="edgeStyle=orthogonalEdgeStyle;rounded=0;orthogonalLoop=1;jettySize=auto;html=1;" edge="1" parent="1" source="UNILriuvcRTVtCKPwh0u-25" target="UNILriuvcRTVtCKPwh0u-21">
          <mxGeometry relative="1" as="geometry" />
        </mxCell>
        <mxCell id="UNILriuvcRTVtCKPwh0u-25" value="Size" style="ellipse;whiteSpace=wrap;html=1;fillColor=#d80073;fontColor=#ffffff;strokeColor=#A50040;" vertex="1" parent="1">
          <mxGeometry x="725" y="920" width="100" height="50" as="geometry" />
        </mxCell>
        <mxCell id="UNILriuvcRTVtCKPwh0u-27" value="Maximum Occupancy" style="ellipse;whiteSpace=wrap;html=1;fillColor=#d80073;fontColor=#ffffff;strokeColor=#A50040;" vertex="1" parent="1">
          <mxGeometry x="615" y="920" width="110" height="50" as="geometry" />
        </mxCell>
        <mxCell id="UNILriuvcRTVtCKPwh0u-28" style="edgeStyle=orthogonalEdgeStyle;rounded=0;orthogonalLoop=1;jettySize=auto;html=1;entryX=0.5;entryY=0;entryDx=0;entryDy=0;" edge="1" parent="1" source="UNILriuvcRTVtCKPwh0u-29" target="UNILriuvcRTVtCKPwh0u-21">
          <mxGeometry relative="1" as="geometry" />
        </mxCell>
        <mxCell id="UNILriuvcRTVtCKPwh0u-29" value="Combined" style="rhombus;whiteSpace=wrap;html=1;fillColor=#d5e8d4;strokeColor=#82b366;" vertex="1" parent="1">
          <mxGeometry x="675" y="550" width="140" height="80" as="geometry" />
        </mxCell>
        <mxCell id="UNILriuvcRTVtCKPwh0u-30" style="edgeStyle=orthogonalEdgeStyle;rounded=0;orthogonalLoop=1;jettySize=auto;html=1;" edge="1" parent="1" source="UNILriuvcRTVtCKPwh0u-29" target="UNILriuvcRTVtCKPwh0u-21">
          <mxGeometry relative="1" as="geometry">
            <Array as="points">
              <mxPoint x="665" y="595" />
              <mxPoint x="665" y="730" />
            </Array>
          </mxGeometry>
        </mxCell>
        <mxCell id="UNILriuvcRTVtCKPwh0u-31" style="edgeStyle=orthogonalEdgeStyle;rounded=0;orthogonalLoop=1;jettySize=auto;html=1;entryX=1;entryY=0.5;entryDx=0;entryDy=0;" edge="1" parent="1" source="UNILriuvcRTVtCKPwh0u-32" target="UNILriuvcRTVtCKPwh0u-42">
          <mxGeometry relative="1" as="geometry" />
        </mxCell>
        <mxCell id="UNILriuvcRTVtCKPwh0u-32" value="Building" style="rounded=0;whiteSpace=wrap;html=1;fillColor=#0050ef;strokeColor=#001DBC;fontColor=#ffffff;" vertex="1" parent="1">
          <mxGeometry x="1290" y="610" width="120" height="60" as="geometry" />
        </mxCell>
        <mxCell id="UNILriuvcRTVtCKPwh0u-86" style="edgeStyle=orthogonalEdgeStyle;rounded=0;orthogonalLoop=1;jettySize=auto;html=1;exitX=0.5;exitY=0;exitDx=0;exitDy=0;entryX=0.5;entryY=1;entryDx=0;entryDy=0;" edge="1" parent="1" source="UNILriuvcRTVtCKPwh0u-36" target="UNILriuvcRTVtCKPwh0u-39">
          <mxGeometry relative="1" as="geometry" />
        </mxCell>
        <mxCell id="UNILriuvcRTVtCKPwh0u-87" style="edgeStyle=orthogonalEdgeStyle;rounded=0;orthogonalLoop=1;jettySize=auto;html=1;exitX=0.5;exitY=0;exitDx=0;exitDy=0;entryX=0.5;entryY=1;entryDx=0;entryDy=0;" edge="1" parent="1" source="UNILriuvcRTVtCKPwh0u-36" target="UNILriuvcRTVtCKPwh0u-38">
          <mxGeometry relative="1" as="geometry" />
        </mxCell>
        <mxCell id="UNILriuvcRTVtCKPwh0u-36" value="Reservation" style="rhombus;whiteSpace=wrap;html=1;fillColor=#d5e8d4;strokeColor=#82b366;" vertex="1" parent="1">
          <mxGeometry x="945" y="370" width="140" height="80" as="geometry" />
        </mxCell>
        <mxCell id="UNILriuvcRTVtCKPwh0u-37" value="&lt;u&gt;Reservation ID&lt;/u&gt;" style="ellipse;whiteSpace=wrap;html=1;fillColor=#d80073;fontColor=#ffffff;strokeColor=#A50040;" vertex="1" parent="1">
          <mxGeometry x="854" y="170" width="105" height="50" as="geometry" />
        </mxCell>
        <mxCell id="UNILriuvcRTVtCKPwh0u-38" value="Date" style="ellipse;whiteSpace=wrap;html=1;fillColor=#d80073;fontColor=#ffffff;strokeColor=#A50040;" vertex="1" parent="1">
          <mxGeometry x="959" y="170" width="112" height="50" as="geometry" />
        </mxCell>
        <mxCell id="UNILriuvcRTVtCKPwh0u-39" value="Number of people" style="ellipse;whiteSpace=wrap;html=1;fillColor=#d80073;fontColor=#ffffff;strokeColor=#A50040;" vertex="1" parent="1">
          <mxGeometry x="1070" y="170" width="110" height="50" as="geometry" />
        </mxCell>
        <mxCell id="UNILriuvcRTVtCKPwh0u-40" style="edgeStyle=orthogonalEdgeStyle;rounded=0;orthogonalLoop=1;jettySize=auto;html=1;entryX=0.575;entryY=0.992;entryDx=0;entryDy=0;entryPerimeter=0;" edge="1" parent="1" source="UNILriuvcRTVtCKPwh0u-36" target="UNILriuvcRTVtCKPwh0u-37">
          <mxGeometry relative="1" as="geometry" />
        </mxCell>
        <mxCell id="UNILriuvcRTVtCKPwh0u-91" style="edgeStyle=orthogonalEdgeStyle;rounded=0;orthogonalLoop=1;jettySize=auto;html=1;exitX=0;exitY=0.5;exitDx=0;exitDy=0;entryX=1;entryY=0.75;entryDx=0;entryDy=0;" edge="1" parent="1" source="UNILriuvcRTVtCKPwh0u-42" target="UNILriuvcRTVtCKPwh0u-21">
          <mxGeometry relative="1" as="geometry" />
        </mxCell>
        <mxCell id="UNILriuvcRTVtCKPwh0u-42" value="Distributed" style="rhombus;whiteSpace=wrap;html=1;fillColor=#d5e8d4;strokeColor=#82b366;" vertex="1" parent="1">
          <mxGeometry x="1060" y="770" width="100" height="70" as="geometry" />
        </mxCell>
        <mxCell id="UNILriuvcRTVtCKPwh0u-72" style="edgeStyle=orthogonalEdgeStyle;rounded=0;orthogonalLoop=1;jettySize=auto;html=1;exitX=0;exitY=1;exitDx=0;exitDy=0;entryX=0.488;entryY=0.026;entryDx=0;entryDy=0;entryPerimeter=0;" edge="1" parent="1" source="UNILriuvcRTVtCKPwh0u-43" target="UNILriuvcRTVtCKPwh0u-47">
          <mxGeometry relative="1" as="geometry">
            <mxPoint x="274" y="854.9999999999998" as="sourcePoint" />
            <mxPoint x="223.99999999999966" y="950" as="targetPoint" />
          </mxGeometry>
        </mxCell>
        <mxCell id="UNILriuvcRTVtCKPwh0u-74" style="edgeStyle=orthogonalEdgeStyle;rounded=0;orthogonalLoop=1;jettySize=auto;html=1;exitX=1;exitY=1;exitDx=0;exitDy=0;entryX=0.496;entryY=0.036;entryDx=0;entryDy=0;entryPerimeter=0;" edge="1" parent="1" source="UNILriuvcRTVtCKPwh0u-43" target="UNILriuvcRTVtCKPwh0u-45">
          <mxGeometry relative="1" as="geometry">
            <mxPoint x="424.00000000000045" y="945" as="targetPoint" />
          </mxGeometry>
        </mxCell>
        <mxCell id="UNILriuvcRTVtCKPwh0u-43" value="Parking Space" style="rounded=0;whiteSpace=wrap;html=1;fillColor=#0050ef;strokeColor=#001DBC;fontColor=#ffffff;" vertex="1" parent="1">
          <mxGeometry x="274" y="790" width="120" height="60" as="geometry" />
        </mxCell>
        <mxCell id="UNILriuvcRTVtCKPwh0u-45" value="&lt;u&gt;Parking Space ID&lt;/u&gt;" style="ellipse;whiteSpace=wrap;html=1;fillColor=#d80073;fontColor=#ffffff;strokeColor=#A50040;" vertex="1" parent="1">
          <mxGeometry x="355" y="1010" width="110" height="60" as="geometry" />
        </mxCell>
        <mxCell id="UNILriuvcRTVtCKPwh0u-47" value="License Plate Number" style="ellipse;whiteSpace=wrap;html=1;fillColor=#d80073;fontColor=#ffffff;strokeColor=#A50040;" vertex="1" parent="1">
          <mxGeometry x="210" y="1010" width="100" height="50" as="geometry" />
        </mxCell>
        <mxCell id="UNILriuvcRTVtCKPwh0u-48" style="edgeStyle=orthogonalEdgeStyle;rounded=0;orthogonalLoop=1;jettySize=auto;html=1;entryX=1;entryY=0.5;entryDx=0;entryDy=0;" edge="1" parent="1" source="UNILriuvcRTVtCKPwh0u-49" target="UNILriuvcRTVtCKPwh0u-36">
          <mxGeometry relative="1" as="geometry" />
        </mxCell>
        <mxCell id="UNILriuvcRTVtCKPwh0u-49" value="Timeslot" style="ellipse;whiteSpace=wrap;html=1;fillColor=#d80073;fontColor=#ffffff;strokeColor=#A50040;" vertex="1" parent="1">
          <mxGeometry x="1150" y="380" width="110" height="60" as="geometry" />
        </mxCell>
        <mxCell id="UNILriuvcRTVtCKPwh0u-50" style="edgeStyle=orthogonalEdgeStyle;rounded=0;orthogonalLoop=1;jettySize=auto;html=1;entryX=0.5;entryY=0;entryDx=0;entryDy=0;" edge="1" parent="1" source="UNILriuvcRTVtCKPwh0u-51" target="UNILriuvcRTVtCKPwh0u-43">
          <mxGeometry relative="1" as="geometry" />
        </mxCell>
        <mxCell id="UNILriuvcRTVtCKPwh0u-51" value="Assigned" style="rhombus;whiteSpace=wrap;html=1;fillColor=#d5e8d4;strokeColor=#82b366;" vertex="1" parent="1">
          <mxGeometry x="270" y="560" width="130" height="80" as="geometry" />
        </mxCell>
        <mxCell id="UNILriuvcRTVtCKPwh0u-52" value="&lt;b style=&quot;font-size: 25px;&quot;&gt;&lt;font color=&quot;#ff0000&quot; style=&quot;font-size: 25px;&quot;&gt;1&lt;/font&gt;&lt;/b&gt;" style="text;html=1;align=center;verticalAlign=middle;resizable=0;points=[];autosize=1;strokeColor=none;fillColor=none;fontSize=25;" vertex="1" parent="1">
          <mxGeometry x="190" y="220" width="40" height="40" as="geometry" />
        </mxCell>
        <mxCell id="UNILriuvcRTVtCKPwh0u-53" value="&lt;font color=&quot;#ff0008&quot; style=&quot;font-size: 25px;&quot;&gt;N&lt;/font&gt;" style="text;html=1;align=center;verticalAlign=middle;whiteSpace=wrap;rounded=0;" vertex="1" parent="1">
          <mxGeometry x="180" y="350" width="60" height="30" as="geometry" />
        </mxCell>
        <mxCell id="UNILriuvcRTVtCKPwh0u-54" value="&lt;font color=&quot;#ff0000&quot; style=&quot;font-size: 25px;&quot;&gt;1&lt;/font&gt;" style="text;html=1;align=center;verticalAlign=middle;resizable=0;points=[];autosize=1;strokeColor=none;fillColor=none;" vertex="1" parent="1">
          <mxGeometry x="300" y="514" width="40" height="40" as="geometry" />
        </mxCell>
        <mxCell id="UNILriuvcRTVtCKPwh0u-55" value="&lt;font color=&quot;#ff0000&quot; style=&quot;font-size: 25px;&quot;&gt;N&lt;/font&gt;" style="text;html=1;align=center;verticalAlign=middle;resizable=0;points=[];autosize=1;strokeColor=none;fillColor=none;" vertex="1" parent="1">
          <mxGeometry x="1166" y="760" width="40" height="40" as="geometry" />
        </mxCell>
        <mxCell id="UNILriuvcRTVtCKPwh0u-56" value="&lt;font color=&quot;#ff0000&quot; style=&quot;font-size: 25px;&quot;&gt;1&lt;/font&gt;" style="text;html=1;align=center;verticalAlign=middle;resizable=0;points=[];autosize=1;strokeColor=none;fillColor=none;" vertex="1" parent="1">
          <mxGeometry x="1020" y="760" width="40" height="40" as="geometry" />
        </mxCell>
        <mxCell id="UNILriuvcRTVtCKPwh0u-57" value="&lt;font color=&quot;#ff0000&quot; style=&quot;font-size: 25px;&quot;&gt;1&lt;/font&gt;" style="text;html=1;align=center;verticalAlign=middle;resizable=0;points=[];autosize=1;strokeColor=none;fillColor=none;" vertex="1" parent="1">
          <mxGeometry x="300" y="634" width="40" height="40" as="geometry" />
        </mxCell>
        <mxCell id="UNILriuvcRTVtCKPwh0u-58" value="&lt;font color=&quot;#ff0000&quot; style=&quot;font-size: 25px;&quot;&gt;1&lt;/font&gt;" style="text;html=1;align=center;verticalAlign=middle;resizable=0;points=[];autosize=1;strokeColor=none;fillColor=none;" vertex="1" parent="1">
          <mxGeometry x="975" y="443" width="40" height="40" as="geometry" />
        </mxCell>
        <mxCell id="UNILriuvcRTVtCKPwh0u-59" value="&lt;font color=&quot;#ff0000&quot; style=&quot;font-size: 25px;&quot;&gt;N&lt;/font&gt;" style="text;html=1;align=center;verticalAlign=middle;resizable=0;points=[];autosize=1;strokeColor=none;fillColor=none;" vertex="1" parent="1">
          <mxGeometry x="905" y="370" width="40" height="40" as="geometry" />
        </mxCell>
        <mxCell id="UNILriuvcRTVtCKPwh0u-60" value="&lt;font color=&quot;#ff0000&quot; style=&quot;font-size: 25px;&quot;&gt;1&lt;/font&gt;" style="text;html=1;align=center;verticalAlign=middle;resizable=0;points=[];autosize=1;strokeColor=none;fillColor=none;" vertex="1" parent="1">
          <mxGeometry x="675" y="554" width="40" height="40" as="geometry" />
        </mxCell>
        <mxCell id="UNILriuvcRTVtCKPwh0u-61" value="&lt;font color=&quot;#ff0000&quot; style=&quot;font-size: 25px;&quot;&gt;1&lt;/font&gt;" style="text;html=1;align=center;verticalAlign=middle;resizable=0;points=[];autosize=1;strokeColor=none;fillColor=none;" vertex="1" parent="1">
          <mxGeometry x="775" y="630" width="40" height="40" as="geometry" />
        </mxCell>
        <mxCell id="UNILriuvcRTVtCKPwh0u-62" value="&lt;font color=&quot;#ff0000&quot; style=&quot;font-size: 25px;&quot;&gt;1&lt;/font&gt;" style="text;html=1;align=center;verticalAlign=middle;resizable=0;points=[];autosize=1;strokeColor=none;fillColor=none;" vertex="1" parent="1">
          <mxGeometry x="450" y="460" width="40" height="40" as="geometry" />
        </mxCell>
        <mxCell id="UNILriuvcRTVtCKPwh0u-63" value="&lt;font color=&quot;#ff0000&quot; style=&quot;font-size: 25px;&quot;&gt;1&lt;/font&gt;" style="text;html=1;align=center;verticalAlign=middle;resizable=0;points=[];autosize=1;strokeColor=none;fillColor=none;" vertex="1" parent="1">
          <mxGeometry x="390" y="370" width="40" height="40" as="geometry" />
        </mxCell>
        <mxCell id="UNILriuvcRTVtCKPwh0u-82" style="edgeStyle=orthogonalEdgeStyle;rounded=0;orthogonalLoop=1;jettySize=auto;html=1;exitX=0.5;exitY=0;exitDx=0;exitDy=0;entryX=0.042;entryY=1;entryDx=0;entryDy=0;entryPerimeter=0;" edge="1" parent="1" source="UNILriuvcRTVtCKPwh0u-27" target="UNILriuvcRTVtCKPwh0u-21">
          <mxGeometry relative="1" as="geometry" />
        </mxCell>
      </root>
    </mxGraphModel>
  </diagram>
</mxfile>
